<svg xmlns="http://www.w3.org/2000/svg" width="1840" height="632" viewBox="0 0 1840 632" fill="none">
  <path d="M 244.942 345.136 C 244.942 379.589 234.005 406.715 212.164 426.549 C 190.322 446.35 161.753 456.235 126.52 456.235 C 96.995 456.235 72.124 448.685 51.941 433.554 C 31.758 418.423 18.175 397.567 11.255 370.984 L 72.284 370.984 C 76.206 380.964 82.901 388.897 92.403 394.784 C 101.905 400.669 113.256 403.612 126.52 403.612 C 145.205 403.612 160.191 398.462 171.51 388.194 C 182.798 377.925 188.473 363.562 188.473 345.104 L 188.473 319.705 C 170.681 340.882 146.895 351.438 117.05 351.438 C 83.603 351.438 55.735 340.498 33.448 318.553 C 11.16 296.641 0 268.906 0 235.35 C 0 201.793 11.542 171.275 34.595 148.275 C 57.648 125.307 86.791 113.823 122.056 113.823 C 157.321 113.823 186.975 125.243 210.187 148.051 C 233.399 170.892 245.006 199.81 245.006 234.902 L 245.006 345.104 L 244.942 345.136 Z M 169.916 282.79 C 181.969 270.25 187.995 254.447 187.995 235.414 C 187.995 216.38 181.809 200.577 169.47 188.038 C 157.098 175.498 141.602 169.228 122.917 169.228 C 104.233 169.228 88.258 175.498 75.919 188.038 C 63.547 200.577 57.393 216.38 57.393 235.414 C 57.393 254.447 63.643 270.25 76.142 282.79 C 88.641 295.329 104.551 301.599 123.81 301.599 C 143.069 301.599 157.863 295.329 169.916 282.79 Z" fill="#07D862" fill-rule="nonzero"></path>
  <path d="M 423.916 118.382 L 423.916 174.171 L 397.706 174.171 C 378.734 174.171 363.366 180.281 351.6 192.533 C 339.834 204.785 333.967 220.876 333.967 240.837 L 333.967 351.935 L 277.467 351.935 L 277.467 240.837 C 277.467 199.123 288.021 168.285 309.097 148.324 C 330.173 128.363 359.731 118.382 397.674 118.382 L 423.916 118.382 Z" fill="#07D862" fill-rule="nonzero"></path>
  <path d="M 673.895 279.381 C 665.764 305.389 651.289 324.742 630.499 337.41 C 609.71 350.109 585.159 356.443 556.813 356.443 C 521.867 356.443 493.074 345.119 470.468 322.439 C 447.861 299.759 436.574 270.744 436.574 235.364 C 436.574 199.984 448.116 170.522 471.169 147.842 C 494.222 125.162 523.652 113.838 559.523 113.838 C 595.394 113.838 621.38 124.266 642.903 145.123 C 664.457 165.98 675.234 192.595 675.234 224.936 C 675.234 235.204 674.182 245.185 672.078 254.878 L 504.394 254.878 C 498.08 254.878 494.892 257.757 494.892 263.483 C 494.892 274.679 501.141 284.724 513.64 293.649 C 526.139 302.574 541.285 307.02 559.077 307.02 C 589.495 307.02 609.264 297.807 618.287 279.349 L 673.895 279.349 L 673.895 279.381 Z M 560.448 161.949 C 542.656 161.949 527.829 166.332 515.936 175.097 C 504.043 183.862 496.582 195.954 493.553 211.373 L 612.867 211.373 C 617.682 211.373 620.105 208.973 620.105 204.111 C 620.105 193.235 614.525 183.478 603.365 174.873 C 592.205 166.268 577.889 161.949 560.416 161.949 L 560.448 161.949 Z" fill="#07D862" fill-rule="nonzero"></path>
  <path d="M 931.087 279.381 C 922.956 305.388 908.48 324.742 887.691 337.409 C 866.902 350.109 842.351 356.443 814.005 356.443 C 779.059 356.443 750.266 345.119 727.66 322.439 C 705.053 299.758 693.766 270.744 693.766 235.364 C 693.766 199.984 705.308 170.522 728.361 147.842 C 751.414 125.162 780.844 113.837 816.715 113.837 C 852.586 113.837 878.572 124.266 900.094 145.123 C 921.649 165.98 932.426 192.595 932.426 224.936 C 932.426 235.204 931.374 245.185 929.27 254.878 L 761.585 254.878 C 755.272 254.878 752.084 257.757 752.084 263.483 C 752.084 274.679 758.333 284.723 770.832 293.648 C 783.331 302.573 798.477 307.02 816.268 307.02 C 846.687 307.02 866.456 297.807 875.479 279.349 L 931.087 279.349 L 931.087 279.381 Z M 817.64 161.949 C 799.848 161.949 785.021 166.332 773.128 175.097 C 761.235 183.862 753.774 195.954 750.745 211.372 L 870.059 211.372 C 874.873 211.372 877.297 208.973 877.297 204.111 C 877.297 193.234 871.717 183.478 860.557 174.873 C 849.397 166.268 835.081 161.949 817.608 161.949 L 817.64 161.949 Z" fill="#07D862" fill-rule="nonzero"></path>
  <path d="M 1072.528 86.499 C 1096.336 86.499 1115.637 67.135 1115.637 43.249 C 1115.637 19.363 1096.336 0 1072.528 0 C 1048.72 0 1029.419 19.363 1029.419 43.249 C 1029.419 67.135 1048.72 86.499 1072.528 86.499 Z" fill="#07D862" fill-rule="nonzero"></path>
  <path d="M 526.525 496.399 L 526.525 627.458 L 470.024 627.458 L 470.024 496.399 C 470.024 480.084 465.879 467.385 457.589 458.3 C 449.299 449.247 438.394 444.704 424.811 444.704 C 411.228 444.704 400.259 449.311 391.81 458.524 C 383.36 467.736 379.151 480.372 379.151 496.399 L 379.151 627.458 L 322.651 627.458 L 322.651 496.399 C 322.651 463.45 331.993 437.379 350.678 418.185 C 369.363 398.992 393.149 389.395 422.101 389.395 C 455.835 389.395 481.311 402.383 498.497 428.39 C 515.078 402.383 540.522 389.395 574.894 389.395 C 603.814 389.395 627.537 398.992 646.094 418.185 C 664.619 437.379 673.898 463.45 673.898 496.399 L 673.898 627.458 L 617.397 627.458 L 617.397 496.399 C 617.397 480.084 613.252 467.385 604.962 458.3 C 596.672 449.247 585.767 444.704 572.184 444.704 C 558.601 444.704 547.633 449.311 539.183 458.524 C 530.733 467.736 526.525 480.372 526.525 496.399 Z" fill="#07D862" fill-rule="nonzero"></path>
  <path d="M 940.102 554.909 C 931.971 580.916 917.495 600.269 896.706 612.937 C 875.917 625.637 851.365 631.971 823.02 631.971 C 788.073 631.971 759.281 620.646 736.675 597.966 C 714.068 575.286 702.781 546.272 702.781 510.892 C 702.781 475.512 714.323 446.05 737.376 423.369 C 760.429 400.689 789.859 389.365 825.73 389.365 C 861.601 389.365 887.587 399.793 909.109 420.65 C 930.664 441.507 941.441 468.122 941.441 500.463 C 941.441 510.732 940.389 520.712 938.284 530.405 L 770.6 530.405 C 764.287 530.405 761.099 533.284 761.099 539.01 C 761.099 550.206 767.348 560.251 779.847 569.176 C 792.346 578.101 807.491 582.547 825.283 582.547 C 855.702 582.547 875.471 573.334 884.494 554.877 L 940.102 554.877 L 940.102 554.909 Z M 826.654 437.477 C 808.862 437.477 794.036 441.859 782.143 450.624 C 770.25 459.389 762.788 471.481 759.759 486.9 L 879.074 486.9 C 883.888 486.9 886.312 484.501 886.312 479.638 C 886.312 468.762 880.732 459.005 869.572 450.4 C 858.412 441.795 844.096 437.477 826.623 437.477 L 826.654 437.477 Z" fill="#07D862" fill-rule="nonzero"></path>
  <path d="M 959.081 225.863 C 959.081 191.091 969.476 163.74 990.265 143.779 C 1011.054 123.818 1038.188 113.837 1071.636 113.837 C 1105.083 113.837 1131.835 123.818 1152.783 143.779 C 1173.732 163.74 1184.19 191.091 1184.19 225.863 L 1184.19 631.997 L 1127.69 631.997 L 1127.69 227.207 C 1127.69 208.781 1122.493 194.482 1112.098 184.341 C 1101.703 174.201 1088.216 169.147 1071.636 169.147 C 1055.056 169.147 1041.568 174.201 1031.173 184.341 C 1020.779 194.482 1015.582 208.749 1015.582 227.207 L 1015.582 631.997 L 959.081 631.997 L 959.081 225.863 Z" fill="#07D862" fill-rule="nonzero"></path>
  <path d="M 1412.898 626.573 C 1396.031 628.973 1377.633 630.188 1357.769 630.188 C 1329.742 630.188 1308.188 622.639 1293.138 607.508 C 1278.056 592.409 1270.531 569.857 1270.531 539.947 L 1270.531 445.643 L 1213.138 445.643 L 1213.138 393.949 L 1253.823 393.949 C 1264.951 393.949 1270.531 388.35 1270.531 377.154 L 1270.531 312.312 L 1327.031 312.312 L 1327.031 393.949 L 1412.898 393.949 L 1412.898 445.643 L 1327.031 445.643 L 1327.031 534.509 C 1327.031 548.712 1330.188 559.076 1336.533 565.57 C 1342.878 572.064 1353.56 575.327 1368.61 575.327 C 1383.66 575.327 1397.849 574.271 1412.898 572.16 L 1412.898 626.573 Z" fill="#07D862" fill-rule="nonzero"></path>
  <path d="M 1544.872 632 C 1509.607 632 1480.464 620.676 1457.411 597.996 C 1434.358 575.315 1422.816 546.301 1422.816 510.921 C 1422.816 475.541 1434.358 446.463 1457.411 423.623 C 1480.464 400.815 1509.607 389.394 1544.872 389.394 C 1580.137 389.394 1609.663 400.719 1632.556 423.399 C 1655.45 446.079 1666.896 475.253 1666.896 510.921 C 1666.896 546.589 1655.45 575.315 1632.556 597.996 C 1609.663 620.676 1580.424 632 1544.872 632 Z M 1498.32 558.297 C 1510.372 570.837 1525.9 577.107 1544.872 577.107 C 1563.844 577.107 1579.372 570.837 1591.424 558.297 C 1603.477 545.757 1609.503 529.955 1609.503 510.921 C 1609.503 491.888 1603.477 475.701 1591.424 463.321 C 1579.372 450.942 1563.844 444.736 1544.872 444.736 C 1525.9 444.736 1510.372 450.942 1498.32 463.321 C 1486.267 475.733 1480.241 491.6 1480.241 510.921 C 1480.241 530.243 1486.267 545.757 1498.32 558.297 Z" fill="#07D862" fill-rule="nonzero"></path>
  <path d="M 1840 393.954 L 1840 449.743 L 1813.79 449.743 C 1794.818 449.743 1779.45 455.853 1767.685 468.105 C 1755.919 480.356 1750.052 496.447 1750.052 516.408 L 1750.052 627.506 L 1693.552 627.506 L 1693.552 516.408 C 1693.552 474.694 1704.105 443.857 1725.182 423.896 C 1746.258 403.934 1775.815 393.954 1813.758 393.954 L 1840 393.954 Z" fill="#07D862" fill-rule="nonzero"></path>
  <path d="M 244.942 345.136 L 244.493 344.242 L 243.942 344.519 L 243.942 345.136 L 244.942 345.136 Z M 212.164 426.549 L 212.835 427.29 L 212.836 427.289 L 212.164 426.549 Z M 11.255 370.984 L 11.255 369.984 L 9.962 369.984 L 10.288 371.235 L 11.255 370.984 Z M 72.284 370.984 L 73.214 370.618 L 72.965 369.984 L 72.284 369.984 L 72.284 370.984 Z M 171.51 388.194 L 172.182 388.934 L 172.183 388.933 L 171.51 388.194 Z M 188.473 319.705 L 189.473 319.705 L 189.473 316.96 L 187.707 319.062 L 188.473 319.705 Z M 33.448 318.553 L 34.149 317.841 L 34.149 317.84 L 33.448 318.553 Z M 34.595 148.275 L 33.89 147.567 L 33.889 147.567 L 34.595 148.275 Z M 210.187 148.051 L 210.888 147.339 L 210.888 147.338 L 210.187 148.051 Z M 245.006 345.104 L 245.454 345.998 L 246.006 345.722 L 246.006 345.104 L 245.006 345.104 Z M 169.47 188.038 L 170.182 187.336 L 170.181 187.335 L 169.47 188.038 Z M 75.919 188.038 L 76.63 188.74 L 76.631 188.739 L 75.919 188.038 Z M 423.916 118.382 L 424.916 118.382 L 424.916 117.382 L 423.916 117.382 L 423.916 118.382 Z M 423.916 174.171 L 423.916 175.171 L 424.916 175.171 L 424.916 174.171 L 423.916 174.171 Z M 333.967 351.935 L 333.967 352.935 L 334.967 352.935 L 334.967 351.935 L 333.967 351.935 Z M 277.467 351.935 L 276.467 351.935 L 276.467 352.935 L 277.467 352.935 L 277.467 351.935 Z M 673.895 279.381 L 674.85 279.68 L 674.895 279.534 L 674.895 279.381 L 673.895 279.381 Z M 630.499 337.41 L 629.979 336.556 L 629.978 336.556 L 630.499 337.41 Z M 642.903 145.123 L 642.207 145.841 L 642.207 145.842 L 642.903 145.123 Z M 672.078 254.878 L 672.078 255.878 L 672.884 255.878 L 673.055 255.09 L 672.078 254.878 Z M 618.287 279.349 L 618.287 278.349 L 617.663 278.349 L 617.389 278.91 L 618.287 279.349 Z M 673.895 279.349 L 674.895 279.349 L 674.895 278.349 L 673.895 278.349 L 673.895 279.349 Z M 493.553 211.373 L 492.571 211.18 L 492.337 212.373 L 493.553 212.373 L 493.553 211.373 Z M 931.087 279.381 L 932.041 279.68 L 932.087 279.534 L 932.087 279.381 L 931.087 279.381 Z M 887.691 337.409 L 887.171 336.555 L 887.17 336.556 L 887.691 337.409 Z M 900.094 145.123 L 899.399 145.841 L 899.399 145.841 L 900.094 145.123 Z M 929.27 254.878 L 929.27 255.878 L 930.076 255.878 L 930.247 255.09 L 929.27 254.878 Z M 875.479 279.349 L 875.479 278.349 L 874.855 278.349 L 874.581 278.91 L 875.479 279.349 Z M 931.087 279.349 L 932.087 279.349 L 932.087 278.349 L 931.087 278.349 L 931.087 279.349 Z M 750.745 211.372 L 749.763 211.18 L 749.529 212.372 L 750.745 212.372 L 750.745 211.372 Z M 526.525 627.458 L 526.525 628.458 L 527.525 628.458 L 527.525 627.458 L 526.525 627.458 Z M 470.024 627.458 L 469.024 627.458 L 469.024 628.458 L 470.024 628.458 L 470.024 627.458 Z M 457.589 458.3 L 458.328 457.626 L 458.326 457.624 L 457.589 458.3 Z M 379.151 627.458 L 379.151 628.458 L 380.151 628.458 L 380.151 627.458 L 379.151 627.458 Z M 322.651 627.458 L 321.651 627.458 L 321.651 628.458 L 322.651 628.458 L 322.651 627.458 Z M 498.497 428.39 L 497.663 428.941 L 498.513 430.226 L 499.341 428.927 L 498.497 428.39 Z M 646.094 418.185 L 646.813 417.491 L 646.813 417.49 L 646.094 418.185 Z M 673.898 627.458 L 673.898 628.458 L 674.898 628.458 L 674.898 627.458 L 673.898 627.458 Z M 617.397 627.458 L 616.397 627.458 L 616.397 628.458 L 617.397 628.458 L 617.397 627.458 Z M 604.962 458.3 L 605.701 457.626 L 605.7 457.624 L 604.962 458.3 Z M 940.102 554.909 L 941.056 555.207 L 941.102 555.061 L 941.102 554.909 L 940.102 554.909 Z M 896.706 612.937 L 896.186 612.083 L 896.185 612.084 L 896.706 612.937 Z M 909.109 420.65 L 908.414 421.368 L 908.414 421.369 L 909.109 420.65 Z M 938.284 530.405 L 938.284 531.405 L 939.091 531.405 L 939.262 530.617 L 938.284 530.405 Z M 884.494 554.877 L 884.494 553.877 L 883.87 553.877 L 883.596 554.438 L 884.494 554.877 Z M 940.102 554.877 L 941.102 554.877 L 941.102 553.877 L 940.102 553.877 L 940.102 554.877 Z M 759.759 486.9 L 758.778 486.707 L 758.544 487.9 L 759.759 487.9 L 759.759 486.9 Z M 1184.19 631.997 L 1184.19 632.997 L 1185.19 632.997 L 1185.19 631.997 L 1184.19 631.997 Z M 1127.69 631.997 L 1126.69 631.997 L 1126.69 632.997 L 1127.69 632.997 L 1127.69 631.997 Z M 1015.582 631.997 L 1015.582 632.997 L 1016.582 632.997 L 1016.582 631.997 L 1015.582 631.997 Z M 959.081 631.997 L 958.081 631.997 L 958.081 632.997 L 959.081 632.997 L 959.081 631.997 Z M 1412.898 626.573 L 1413.039 627.564 L 1413.898 627.441 L 1413.898 626.573 L 1412.898 626.573 Z M 1293.138 607.508 L 1293.847 606.803 L 1293.845 606.801 L 1293.138 607.508 Z M 1270.531 445.643 L 1271.531 445.643 L 1271.531 444.643 L 1270.531 444.643 L 1270.531 445.643 Z M 1213.138 445.643 L 1212.138 445.643 L 1212.138 446.643 L 1213.138 446.643 L 1213.138 445.643 Z M 1213.138 393.949 L 1213.138 392.949 L 1212.138 392.949 L 1212.138 393.949 L 1213.138 393.949 Z M 1270.531 312.312 L 1270.531 311.312 L 1269.531 311.312 L 1269.531 312.312 L 1270.531 312.312 Z M 1327.031 312.312 L 1328.031 312.312 L 1328.031 311.312 L 1327.031 311.312 L 1327.031 312.312 Z M 1327.031 393.949 L 1326.031 393.949 L 1326.031 394.949 L 1327.031 394.949 L 1327.031 393.949 Z M 1412.898 393.949 L 1413.898 393.949 L 1413.898 392.949 L 1412.898 392.949 L 1412.898 393.949 Z M 1412.898 445.643 L 1412.898 446.643 L 1413.898 446.643 L 1413.898 445.643 L 1412.898 445.643 Z M 1327.031 445.643 L 1327.031 444.643 L 1326.031 444.643 L 1326.031 445.643 L 1327.031 445.643 Z M 1412.898 572.16 L 1413.898 572.16 L 1413.898 571.01 L 1412.759 571.17 L 1412.898 572.16 Z M 1457.411 423.623 L 1456.708 422.912 L 1456.707 422.912 L 1457.411 423.623 Z M 1498.32 463.321 L 1497.603 462.624 L 1497.602 462.625 L 1498.32 463.321 Z M 1840 393.954 L 1841 393.954 L 1841 392.954 L 1840 392.954 L 1840 393.954 Z M 1840 449.743 L 1840 450.743 L 1841 450.743 L 1841 449.743 L 1840 449.743 Z M 1750.052 627.506 L 1750.052 628.506 L 1751.052 628.506 L 1751.052 627.506 L 1750.052 627.506 Z M 1693.552 627.506 L 1692.552 627.506 L 1692.552 628.506 L 1693.552 628.506 L 1693.552 627.506 Z M 244.942 345.136 L 243.942 345.136 C 243.942 379.358 233.089 406.197 211.492 425.808 L 212.164 426.549 L 212.836 427.289 C 234.921 407.234 245.942 379.819 245.942 345.136 L 244.942 345.136 Z M 212.164 426.549 L 211.492 425.808 C 189.87 445.411 161.557 455.235 126.52 455.235 L 126.52 456.235 L 126.52 457.235 C 161.95 457.235 190.775 447.289 212.835 427.29 L 212.164 426.549 Z M 126.52 456.235 L 126.52 455.235 C 97.172 455.235 72.522 447.734 52.541 432.754 L 51.941 433.554 L 51.341 434.354 C 71.726 449.637 96.817 457.235 126.52 457.235 L 126.52 456.235 Z M 51.941 433.554 L 52.541 432.754 C 32.555 417.771 19.09 397.116 12.223 370.732 L 11.255 370.984 L 10.288 371.235 C 17.259 398.018 30.961 419.076 51.341 434.354 L 51.941 433.554 Z M 11.255 370.984 L 11.255 371.984 L 72.284 371.984 L 72.284 370.984 L 72.284 369.984 L 11.255 369.984 L 11.255 370.984 Z M 72.284 370.984 L 71.353 371.349 C 75.357 381.539 82.199 389.639 91.877 395.634 L 92.403 394.784 L 92.93 393.933 C 83.604 388.156 77.054 380.389 73.214 370.618 L 72.284 370.984 Z M 92.403 394.784 L 91.877 395.634 C 101.564 401.634 113.105 404.612 126.52 404.612 L 126.52 403.612 L 126.52 402.612 C 113.408 402.612 102.246 399.705 92.93 393.933 L 92.403 394.784 Z M 126.52 403.612 L 126.52 404.612 C 145.396 404.612 160.641 399.404 172.182 388.934 L 171.51 388.194 L 170.838 387.453 C 159.741 397.52 145.014 402.612 126.52 402.612 L 126.52 403.612 Z M 171.51 388.194 L 172.183 388.933 C 183.721 378.437 189.473 363.781 189.473 345.104 L 188.473 345.104 L 187.473 345.104 C 187.473 363.343 181.874 377.413 170.837 387.454 L 171.51 388.194 Z M 188.473 345.104 L 189.473 345.104 L 189.473 319.705 L 188.473 319.705 L 187.473 319.705 L 187.473 345.104 L 188.473 345.104 Z M 188.473 319.705 L 187.707 319.062 C 170.122 339.992 146.627 350.438 117.05 350.438 L 117.05 351.438 L 117.05 352.438 C 147.163 352.438 171.24 341.771 189.239 320.348 L 188.473 319.705 Z M 117.05 351.438 L 117.05 350.438 C 83.845 350.438 56.235 339.587 34.149 317.841 L 33.448 318.553 L 32.746 319.266 C 55.235 341.409 83.361 352.438 117.05 352.438 L 117.05 351.438 Z M 33.448 318.553 L 34.149 317.84 C 12.067 296.13 1 268.66 1 235.35 L 0 235.35 L -1 235.35 C -1 269.153 10.253 297.151 32.746 319.267 L 33.448 318.553 Z M 0 235.35 L 1 235.35 C 1 202.03 12.456 171.776 35.302 148.983 L 34.595 148.275 L 33.889 147.567 C 10.629 170.774 -1 201.556 -1 235.35 L 0 235.35 Z M 34.595 148.275 L 35.301 148.984 C 58.15 126.219 87.032 114.823 122.056 114.823 L 122.056 113.823 L 122.056 112.823 C 86.551 112.823 57.147 124.395 33.89 147.567 L 34.595 148.275 Z M 122.056 113.823 L 122.056 114.823 C 157.087 114.823 186.479 126.158 209.486 148.765 L 210.187 148.051 L 210.888 147.338 C 187.47 124.328 157.556 112.823 122.056 112.823 L 122.056 113.823 Z M 210.187 148.051 L 209.486 148.764 C 232.491 171.401 244.006 200.055 244.006 234.902 L 245.006 234.902 L 246.006 234.902 C 246.006 199.564 234.307 170.382 210.888 147.339 L 210.187 148.051 Z M 245.006 234.902 L 244.006 234.902 L 244.006 345.104 L 245.006 345.104 L 246.006 345.104 L 246.006 234.902 L 245.006 234.902 Z M 245.006 345.104 L 244.557 344.211 L 244.493 344.242 L 244.942 345.136 L 245.39 346.03 L 245.454 345.998 L 245.006 345.104 Z M 169.916 282.79 L 170.637 283.483 C 182.886 270.738 188.995 254.679 188.995 235.414 L 187.995 235.414 L 186.995 235.414 C 186.995 254.216 181.051 269.762 169.195 282.097 L 169.916 282.79 Z M 187.995 235.414 L 188.995 235.414 C 188.995 216.141 182.722 200.079 170.182 187.336 L 169.47 188.038 L 168.757 188.739 C 180.897 201.076 186.995 216.619 186.995 235.414 L 187.995 235.414 Z M 169.47 188.038 L 170.181 187.335 C 157.61 174.593 141.852 168.228 122.917 168.228 L 122.917 169.228 L 122.917 170.228 C 141.352 170.228 156.586 176.403 168.758 188.74 L 169.47 188.038 Z M 122.917 169.228 L 122.917 168.228 C 103.991 168.228 87.751 174.588 75.206 187.336 L 75.919 188.038 L 76.631 188.739 C 88.765 176.408 104.474 170.228 122.917 170.228 L 122.917 169.228 Z M 75.919 188.038 L 75.207 187.335 C 62.634 200.079 56.393 216.142 56.393 235.414 L 57.393 235.414 L 58.393 235.414 C 58.393 216.618 64.46 201.076 76.63 188.74 L 75.919 188.038 Z M 57.393 235.414 L 56.393 235.414 C 56.393 254.69 62.733 270.753 75.433 283.496 L 76.142 282.79 L 76.85 282.084 C 64.553 269.746 58.393 254.205 58.393 235.414 L 57.393 235.414 Z M 76.142 282.79 L 75.433 283.496 C 88.138 296.241 104.312 302.599 123.81 302.599 L 123.81 301.599 L 123.81 300.599 C 104.791 300.599 89.144 294.417 76.85 282.084 L 76.142 282.79 Z M 123.81 301.599 L 123.81 302.599 C 143.323 302.599 158.384 296.231 170.637 283.483 L 169.916 282.79 L 169.195 282.097 C 157.343 294.428 142.814 300.599 123.81 300.599 L 123.81 301.599 Z M 423.916 118.382 L 422.916 118.382 L 422.916 174.171 L 423.916 174.171 L 424.916 174.171 L 424.916 118.382 L 423.916 118.382 Z M 423.916 174.171 L 423.916 173.171 L 397.706 173.171 L 397.706 174.171 L 397.706 175.171 L 423.916 175.171 L 423.916 174.171 Z M 397.706 174.171 L 397.706 173.171 C 378.498 173.171 362.856 179.368 350.879 191.841 L 351.6 192.533 L 352.321 193.226 C 363.875 181.195 378.971 175.171 397.706 175.171 L 397.706 174.171 Z M 351.6 192.533 L 350.879 191.841 C 338.903 204.311 332.967 220.666 332.967 240.837 L 333.967 240.837 L 334.967 240.837 C 334.967 221.085 340.766 205.259 352.321 193.226 L 351.6 192.533 Z M 333.967 240.837 L 332.967 240.837 L 332.967 351.935 L 333.967 351.935 L 334.967 351.935 L 334.967 240.837 L 333.967 240.837 Z M 333.967 351.935 L 333.967 350.935 L 277.467 350.935 L 277.467 351.935 L 277.467 352.935 L 333.967 352.935 L 333.967 351.935 Z M 277.467 351.935 L 278.467 351.935 L 278.467 240.837 L 277.467 240.837 L 276.467 240.837 L 276.467 351.935 L 277.467 351.935 Z M 277.467 240.837 L 278.467 240.837 C 278.467 199.276 288.982 168.753 309.785 149.05 L 309.097 148.324 L 308.409 147.598 C 287.06 167.818 276.467 198.97 276.467 240.837 L 277.467 240.837 Z M 309.097 148.324 L 309.785 149.05 C 330.623 129.314 359.905 119.382 397.674 119.382 L 397.674 118.382 L 397.674 117.382 C 359.556 117.382 329.723 127.412 308.409 147.598 L 309.097 148.324 Z M 673.895 279.381 L 672.941 279.083 C 664.873 304.888 650.536 324.03 629.979 336.556 L 630.499 337.41 L 631.02 338.264 C 652.041 325.454 666.656 305.889 674.85 279.68 L 673.895 279.381 Z M 630.499 337.41 L 629.978 336.556 C 609.37 349.145 585.006 355.443 556.813 355.443 L 556.813 356.443 L 556.813 357.443 C 585.312 357.443 610.05 351.074 631.021 338.263 L 630.499 337.41 Z M 556.813 356.443 L 556.813 355.443 C 522.105 355.443 493.577 344.207 471.176 321.733 L 470.468 322.439 L 469.76 323.145 C 492.572 346.032 521.628 357.443 556.813 357.443 L 556.813 356.443 Z M 470.468 322.439 L 471.176 321.733 C 448.777 299.261 437.574 270.51 437.574 235.364 L 436.574 235.364 L 435.574 235.364 C 435.574 270.978 446.946 300.256 469.76 323.145 L 470.468 322.439 Z M 436.574 235.364 L 437.574 235.364 C 437.574 200.221 449.03 171.026 471.871 148.555 L 471.169 147.842 L 470.468 147.129 C 447.203 170.018 435.574 199.748 435.574 235.364 L 436.574 235.364 Z M 471.169 147.842 L 471.871 148.555 C 494.715 126.08 523.883 114.838 559.523 114.838 L 559.523 113.838 L 559.523 112.838 C 523.421 112.838 493.729 124.244 470.468 147.129 L 471.169 147.842 Z M 559.523 113.838 L 559.523 114.838 C 595.164 114.838 620.891 125.185 642.207 145.841 L 642.903 145.123 L 643.599 144.405 C 621.869 123.347 595.623 112.838 559.523 112.838 L 559.523 113.838 Z M 642.903 145.123 L 642.207 145.842 C 663.551 166.494 674.234 192.842 674.234 224.936 L 675.234 224.936 L 676.234 224.936 C 676.234 192.348 665.364 165.466 643.598 144.404 L 642.903 145.123 Z M 675.234 224.936 L 674.234 224.936 C 674.234 235.136 673.189 245.045 671.1 254.666 L 672.078 254.878 L 673.055 255.09 C 675.175 245.325 676.234 235.273 676.234 224.936 L 675.234 224.936 Z M 672.078 254.878 L 672.078 253.878 L 504.394 253.878 L 504.394 254.878 L 504.394 255.878 L 672.078 255.878 L 672.078 254.878 Z M 504.394 254.878 L 504.394 253.878 C 501.104 253.878 498.445 254.626 496.604 256.292 C 494.745 257.974 493.892 260.436 493.892 263.483 L 494.892 263.483 L 495.892 263.483 C 495.892 260.803 496.633 258.963 497.946 257.775 C 499.278 256.569 501.37 255.878 504.394 255.878 L 504.394 254.878 Z M 494.892 263.483 L 493.892 263.483 C 493.892 275.114 500.404 285.426 513.059 294.462 L 513.64 293.649 L 514.221 292.835 C 501.879 284.022 495.892 274.244 495.892 263.483 L 494.892 263.483 Z M 513.64 293.649 L 513.059 294.462 C 525.754 303.527 541.111 308.02 559.077 308.02 L 559.077 307.02 L 559.077 306.02 C 541.458 306.02 526.525 301.62 514.221 292.835 L 513.64 293.649 Z M 559.077 307.02 L 559.077 308.02 C 589.669 308.02 609.919 298.744 619.186 279.789 L 618.287 279.349 L 617.389 278.91 C 608.609 296.871 589.322 306.02 559.077 306.02 L 559.077 307.02 Z M 618.287 279.349 L 618.287 280.349 L 673.895 280.349 L 673.895 279.349 L 673.895 278.349 L 618.287 278.349 L 618.287 279.349 Z M 673.895 279.349 L 672.895 279.349 L 672.895 279.381 L 673.895 279.381 L 674.895 279.381 L 674.895 279.349 L 673.895 279.349 Z M 560.448 161.949 L 560.448 160.949 C 542.487 160.949 527.441 165.376 515.343 174.292 L 515.936 175.097 L 516.529 175.902 C 528.218 167.288 542.825 162.949 560.448 162.949 L 560.448 161.949 Z M 515.936 175.097 L 515.343 174.292 C 503.235 183.215 495.645 195.533 492.571 211.18 L 493.553 211.373 L 494.534 211.565 C 497.518 196.375 504.851 184.509 516.529 175.902 L 515.936 175.097 Z M 493.553 211.373 L 493.553 212.373 L 612.867 212.373 L 612.867 211.373 L 612.867 210.373 L 493.553 210.373 L 493.553 211.373 Z M 612.867 211.373 L 612.867 212.373 C 615.428 212.373 617.537 211.734 618.999 210.272 C 620.46 208.811 621.105 206.696 621.105 204.111 L 620.105 204.111 L 619.105 204.111 C 619.105 206.389 618.538 207.905 617.584 208.858 C 616.631 209.812 615.121 210.373 612.867 210.373 L 612.867 211.373 Z M 620.105 204.111 L 621.105 204.111 C 621.105 192.837 615.302 182.815 603.976 174.081 L 603.365 174.873 L 602.755 175.665 C 613.747 184.141 619.105 193.632 619.105 204.111 L 620.105 204.111 Z M 603.365 174.873 L 603.976 174.081 C 592.603 165.312 578.057 160.949 560.416 160.949 L 560.416 161.949 L 560.416 162.949 C 577.721 162.949 591.808 167.224 602.755 175.665 L 603.365 174.873 Z M 560.416 161.949 L 560.416 162.949 L 560.448 162.949 L 560.448 161.949 L 560.448 160.949 L 560.416 160.949 L 560.416 161.949 Z M 931.087 279.381 L 930.132 279.083 C 922.065 304.888 907.728 324.029 887.171 336.555 L 887.691 337.409 L 888.212 338.263 C 909.233 325.454 923.847 305.889 932.041 279.68 L 931.087 279.381 Z M 887.691 337.409 L 887.17 336.556 C 866.562 349.145 842.198 355.443 814.005 355.443 L 814.005 356.443 L 814.005 357.443 C 842.504 357.443 867.242 351.073 888.213 338.263 L 887.691 337.409 Z M 814.005 356.443 L 814.005 355.443 C 779.297 355.443 750.768 344.206 728.368 321.733 L 727.66 322.439 L 726.951 323.145 C 749.764 346.032 778.82 357.443 814.005 357.443 L 814.005 356.443 Z M 727.66 322.439 L 728.368 321.733 C 705.969 299.26 694.766 270.51 694.766 235.364 L 693.766 235.364 L 692.766 235.364 C 692.766 270.978 704.137 300.256 726.951 323.145 L 727.66 322.439 Z M 693.766 235.364 L 694.766 235.364 C 694.766 200.221 706.222 171.026 729.062 148.555 L 728.361 147.842 L 727.66 147.129 C 704.395 170.018 692.766 199.747 692.766 235.364 L 693.766 235.364 Z M 728.361 147.842 L 729.062 148.555 C 751.907 126.079 781.075 114.837 816.715 114.837 L 816.715 113.837 L 816.715 112.837 C 780.613 112.837 750.921 124.244 727.66 147.129 L 728.361 147.842 Z M 816.715 113.837 L 816.715 114.837 C 852.356 114.837 878.083 125.185 899.399 145.841 L 900.094 145.123 L 900.79 144.405 C 879.061 123.347 852.815 112.837 816.715 112.837 L 816.715 113.837 Z M 900.094 145.123 L 899.399 145.841 C 920.742 166.494 931.426 192.842 931.426 224.936 L 932.426 224.936 L 933.426 224.936 C 933.426 192.347 922.555 165.465 900.79 144.404 L 900.094 145.123 Z M 932.426 224.936 L 931.426 224.936 C 931.426 235.135 930.381 245.045 928.292 254.665 L 929.27 254.878 L 930.247 255.09 C 932.367 245.325 933.426 235.273 933.426 224.936 L 932.426 224.936 Z M 929.27 254.878 L 929.27 253.878 L 761.585 253.878 L 761.585 254.878 L 761.585 255.878 L 929.27 255.878 L 929.27 254.878 Z M 761.585 254.878 L 761.585 253.878 C 758.296 253.878 755.637 254.626 753.796 256.291 C 751.937 257.974 751.084 260.436 751.084 263.483 L 752.084 263.483 L 753.084 263.483 C 753.084 260.803 753.825 258.963 755.138 257.774 C 756.47 256.569 758.562 255.878 761.585 255.878 L 761.585 254.878 Z M 752.084 263.483 L 751.084 263.483 C 751.084 275.113 757.595 285.425 770.251 294.462 L 770.832 293.648 L 771.413 292.835 C 759.071 284.021 753.084 274.244 753.084 263.483 L 752.084 263.483 Z M 770.832 293.648 L 770.251 294.462 C 782.946 303.527 798.303 308.02 816.268 308.02 L 816.268 307.02 L 816.268 306.02 C 798.65 306.02 783.716 301.62 771.413 292.835 L 770.832 293.648 Z M 816.268 307.02 L 816.268 308.02 C 846.861 308.02 867.111 298.743 876.378 279.788 L 875.479 279.349 L 874.581 278.91 C 865.8 296.87 846.513 306.02 816.268 306.02 L 816.268 307.02 Z M 875.479 279.349 L 875.479 280.349 L 931.087 280.349 L 931.087 279.349 L 931.087 278.349 L 875.479 278.349 L 875.479 279.349 Z M 931.087 279.349 L 930.087 279.349 L 930.087 279.381 L 931.087 279.381 L 932.087 279.381 L 932.087 279.349 L 931.087 279.349 Z M 817.64 161.949 L 817.64 160.949 C 799.679 160.949 784.632 165.376 772.535 174.292 L 773.128 175.097 L 773.721 175.902 C 785.41 167.287 800.017 162.949 817.64 162.949 L 817.64 161.949 Z M 773.128 175.097 L 772.535 174.292 C 760.427 183.215 752.837 195.532 749.763 211.18 L 750.745 211.372 L 751.726 211.565 C 754.71 196.375 762.043 184.508 773.721 175.902 L 773.128 175.097 Z M 750.745 211.372 L 750.745 212.372 L 870.059 212.372 L 870.059 211.372 L 870.059 210.372 L 750.745 210.372 L 750.745 211.372 Z M 870.059 211.372 L 870.059 212.372 C 872.619 212.372 874.729 211.734 876.19 210.272 C 877.652 208.81 878.297 206.695 878.297 204.111 L 877.297 204.111 L 876.297 204.111 C 876.297 206.389 875.73 207.904 874.776 208.858 C 873.823 209.811 872.313 210.372 870.059 210.372 L 870.059 211.372 Z M 877.297 204.111 L 878.297 204.111 C 878.297 192.837 872.494 182.815 861.168 174.081 L 860.557 174.873 L 859.946 175.665 C 870.939 184.141 876.297 193.632 876.297 204.111 L 877.297 204.111 Z M 860.557 174.873 L 861.168 174.081 C 849.795 165.311 835.248 160.949 817.608 160.949 L 817.608 161.949 L 817.608 162.949 C 834.913 162.949 848.999 167.224 859.946 175.665 L 860.557 174.873 Z M 817.608 161.949 L 817.608 162.949 L 817.64 162.949 L 817.64 161.949 L 817.64 160.949 L 817.608 160.949 L 817.608 161.949 Z M 1115.637 43.249 L 1114.637 43.249 C 1114.637 66.586 1095.781 85.499 1072.528 85.499 L 1072.528 86.499 L 1072.528 87.499 C 1096.892 87.499 1116.637 67.684 1116.637 43.249 L 1115.637 43.249 Z M 1072.528 86.499 L 1072.528 85.499 C 1049.275 85.499 1030.419 66.586 1030.419 43.249 L 1029.419 43.249 L 1028.419 43.249 C 1028.419 67.684 1048.164 87.499 1072.528 87.499 L 1072.528 86.499 Z M 1029.419 43.249 L 1030.419 43.249 C 1030.419 19.913 1049.275 1 1072.528 1 L 1072.528 0 L 1072.528 -1 C 1048.164 -1 1028.419 18.814 1028.419 43.249 L 1029.419 43.249 Z M 1072.528 0 L 1072.528 1 C 1095.781 1 1114.637 19.913 1114.637 43.249 L 1115.637 43.249 L 1116.637 43.249 C 1116.637 18.814 1096.892 -1 1072.528 -1 L 1072.528 0 Z M 526.525 496.399 L 525.525 496.399 L 525.525 627.458 L 526.525 627.458 L 527.525 627.458 L 527.525 496.399 L 526.525 496.399 Z M 526.525 627.458 L 526.525 626.458 L 470.024 626.458 L 470.024 627.458 L 470.024 628.458 L 526.525 628.458 L 526.525 627.458 Z M 470.024 627.458 L 471.024 627.458 L 471.024 496.399 L 470.024 496.399 L 469.024 496.399 L 469.024 627.458 L 470.024 627.458 Z M 470.024 496.399 L 471.024 496.399 C 471.024 479.918 466.834 466.948 458.328 457.626 L 457.589 458.3 L 456.85 458.974 C 464.923 467.821 469.024 480.25 469.024 496.399 L 470.024 496.399 Z M 457.589 458.3 L 458.326 457.624 C 449.827 448.342 438.643 443.704 424.811 443.704 L 424.811 444.704 L 424.811 445.704 C 438.145 445.704 448.771 450.151 456.851 458.975 L 457.589 458.3 Z M 424.811 444.704 L 424.811 443.704 C 410.974 443.704 399.729 448.41 391.073 457.848 L 391.81 458.524 L 392.547 459.199 C 400.79 450.212 411.482 445.704 424.811 445.704 L 424.811 444.704 Z M 391.81 458.524 L 391.073 457.848 C 382.41 467.293 378.151 480.196 378.151 496.399 L 379.151 496.399 L 380.151 496.399 C 380.151 480.548 384.311 468.18 392.547 459.199 L 391.81 458.524 Z M 379.151 496.399 L 378.151 496.399 L 378.151 627.458 L 379.151 627.458 L 380.151 627.458 L 380.151 496.399 L 379.151 496.399 Z M 379.151 627.458 L 379.151 626.458 L 322.651 626.458 L 322.651 627.458 L 322.651 628.458 L 379.151 628.458 L 379.151 627.458 Z M 322.651 627.458 L 323.651 627.458 L 323.651 496.399 L 322.651 496.399 L 321.651 496.399 L 321.651 627.458 L 322.651 627.458 Z M 322.651 496.399 L 323.651 496.399 C 323.651 463.647 332.931 437.849 351.395 418.883 L 350.678 418.185 L 349.961 417.488 C 331.055 436.909 321.651 463.253 321.651 496.399 L 322.651 496.399 Z M 350.678 418.185 L 351.395 418.883 C 369.875 399.899 393.395 390.395 422.101 390.395 L 422.101 389.395 L 422.101 388.395 C 392.903 388.395 368.85 398.084 349.961 417.488 L 350.678 418.185 Z M 422.101 389.395 L 422.101 390.395 C 455.533 390.395 480.68 403.241 497.663 428.941 L 498.497 428.39 L 499.332 427.839 C 481.943 401.524 456.138 388.395 422.101 388.395 L 422.101 389.395 Z M 498.497 428.39 L 499.341 428.927 C 515.714 403.245 540.817 390.395 574.894 390.395 L 574.894 389.395 L 574.894 388.395 C 540.227 388.395 514.442 401.52 497.654 427.852 L 498.497 428.39 Z M 574.894 389.395 L 574.894 390.395 C 603.568 390.395 627.023 399.899 645.375 418.88 L 646.094 418.185 L 646.813 417.49 C 628.051 398.085 604.06 388.395 574.894 388.395 L 574.894 389.395 Z M 646.094 418.185 L 645.374 418.88 C 663.68 437.845 672.898 463.645 672.898 496.399 L 673.898 496.399 L 674.898 496.399 C 674.898 463.255 665.558 436.912 646.813 417.491 L 646.094 418.185 Z M 673.898 496.399 L 672.898 496.399 L 672.898 627.458 L 673.898 627.458 L 674.898 627.458 L 674.898 496.399 L 673.898 496.399 Z M 673.898 627.458 L 673.898 626.458 L 617.397 626.458 L 617.397 627.458 L 617.397 628.458 L 673.898 628.458 L 673.898 627.458 Z M 617.397 627.458 L 618.397 627.458 L 618.397 496.399 L 617.397 496.399 L 616.397 496.399 L 616.397 627.458 L 617.397 627.458 Z M 617.397 496.399 L 618.397 496.399 C 618.397 479.918 614.208 466.948 605.701 457.626 L 604.962 458.3 L 604.223 458.974 C 612.297 467.821 616.397 480.25 616.397 496.399 L 617.397 496.399 Z M 604.962 458.3 L 605.7 457.624 C 597.2 448.342 586.016 443.704 572.184 443.704 L 572.184 444.704 L 572.184 445.704 C 585.518 445.704 596.144 450.151 604.224 458.975 L 604.962 458.3 Z M 572.184 444.704 L 572.184 443.704 C 558.347 443.704 547.102 448.41 538.446 457.848 L 539.183 458.524 L 539.92 459.199 C 548.163 450.212 558.855 445.704 572.184 445.704 L 572.184 444.704 Z M 539.183 458.524 L 538.446 457.848 C 529.783 467.293 525.525 480.196 525.525 496.399 L 526.525 496.399 L 527.525 496.399 C 527.525 480.548 531.684 468.18 539.92 459.199 L 539.183 458.524 Z M 940.102 554.909 L 939.147 554.61 C 931.08 580.415 916.742 599.557 896.186 612.083 L 896.706 612.937 L 897.226 613.791 C 918.248 600.982 932.862 581.416 941.056 555.207 L 940.102 554.909 Z M 896.706 612.937 L 896.185 612.084 C 875.577 624.672 851.212 630.971 823.02 630.971 L 823.02 631.971 L 823.02 632.971 C 851.518 632.971 876.257 626.601 897.227 613.79 L 896.706 612.937 Z M 823.02 631.971 L 823.02 630.971 C 788.312 630.971 759.783 619.734 737.383 597.26 L 736.675 597.966 L 735.966 598.672 C 758.779 621.559 787.835 632.971 823.02 632.971 L 823.02 631.971 Z M 736.675 597.966 L 737.383 597.26 C 714.984 574.788 703.781 546.038 703.781 510.892 L 702.781 510.892 L 701.781 510.892 C 701.781 546.506 713.152 575.784 735.966 598.672 L 736.675 597.966 Z M 702.781 510.892 L 703.781 510.892 C 703.781 475.748 715.237 446.554 738.077 424.082 L 737.376 423.369 L 736.675 422.657 C 713.409 445.546 701.781 475.275 701.781 510.892 L 702.781 510.892 Z M 737.376 423.369 L 738.077 424.082 C 760.922 401.607 790.09 390.365 825.73 390.365 L 825.73 389.365 L 825.73 388.365 C 789.628 388.365 759.936 399.771 736.675 422.657 L 737.376 423.369 Z M 825.73 389.365 L 825.73 390.365 C 861.371 390.365 887.098 400.712 908.414 421.368 L 909.109 420.65 L 909.805 419.932 C 888.076 398.875 861.83 388.365 825.73 388.365 L 825.73 389.365 Z M 909.109 420.65 L 908.414 421.369 C 929.757 442.022 940.441 468.369 940.441 500.463 L 941.441 500.463 L 942.441 500.463 C 942.441 467.875 931.57 440.993 909.805 419.932 L 909.109 420.65 Z M 941.441 500.463 L 940.441 500.463 C 940.441 510.663 939.396 520.572 937.307 530.193 L 938.284 530.405 L 939.262 530.617 C 941.382 520.852 942.441 510.801 942.441 500.463 L 941.441 500.463 Z M 938.284 530.405 L 938.284 529.405 L 770.6 529.405 L 770.6 530.405 L 770.6 531.405 L 938.284 531.405 L 938.284 530.405 Z M 770.6 530.405 L 770.6 529.405 C 767.311 529.405 764.652 530.153 762.811 531.819 C 760.952 533.502 760.099 535.964 760.099 539.01 L 761.099 539.01 L 762.099 539.01 C 762.099 536.331 762.84 534.49 764.153 533.302 C 765.485 532.096 767.576 531.405 770.6 531.405 L 770.6 530.405 Z M 761.099 539.01 L 760.099 539.01 C 760.099 550.641 766.61 560.953 779.266 569.99 L 779.847 569.176 L 780.428 568.362 C 768.086 559.549 762.099 549.772 762.099 539.01 L 761.099 539.01 Z M 779.847 569.176 L 779.266 569.99 C 791.961 579.055 807.318 583.547 825.283 583.547 L 825.283 582.547 L 825.283 581.547 C 807.665 581.547 792.731 577.147 780.428 568.362 L 779.847 569.176 Z M 825.283 582.547 L 825.283 583.547 C 855.875 583.547 876.126 574.271 885.393 555.316 L 884.494 554.877 L 883.596 554.438 C 874.815 572.398 855.528 581.547 825.283 581.547 L 825.283 582.547 Z M 884.494 554.877 L 884.494 555.877 L 940.102 555.877 L 940.102 554.877 L 940.102 553.877 L 884.494 553.877 L 884.494 554.877 Z M 940.102 554.877 L 939.102 554.877 L 939.102 554.909 L 940.102 554.909 L 941.102 554.909 L 941.102 554.877 L 940.102 554.877 Z M 826.654 437.477 L 826.654 436.477 C 808.693 436.477 793.647 440.903 781.549 449.819 L 782.143 450.624 L 782.736 451.429 C 794.425 442.815 809.031 438.477 826.654 438.477 L 826.654 437.477 Z M 782.143 450.624 L 781.549 449.819 C 769.441 458.743 761.852 471.06 758.778 486.707 L 759.759 486.9 L 760.741 487.093 C 763.725 471.902 771.058 460.036 782.736 451.429 L 782.143 450.624 Z M 759.759 486.9 L 759.759 487.9 L 879.074 487.9 L 879.074 486.9 L 879.074 485.9 L 759.759 485.9 L 759.759 486.9 Z M 879.074 486.9 L 879.074 487.9 C 881.634 487.9 883.743 487.261 885.205 485.8 C 886.667 484.338 887.312 482.223 887.312 479.638 L 886.312 479.638 L 885.312 479.638 C 885.312 481.916 884.745 483.432 883.791 484.385 C 882.837 485.339 881.328 485.9 879.074 485.9 L 879.074 486.9 Z M 886.312 479.638 L 887.312 479.638 C 887.312 468.365 881.509 458.342 870.183 449.608 L 869.572 450.4 L 868.961 451.192 C 879.954 459.669 885.312 469.159 885.312 479.638 L 886.312 479.638 Z M 869.572 450.4 L 870.183 449.608 C 858.81 440.839 844.263 436.477 826.623 436.477 L 826.623 437.477 L 826.623 438.477 C 843.928 438.477 858.014 442.751 868.961 451.192 L 869.572 450.4 Z M 826.623 437.477 L 826.623 438.477 L 826.654 438.477 L 826.654 437.477 L 826.654 436.477 L 826.623 436.477 L 826.623 437.477 Z M 959.081 225.863 L 960.081 225.863 C 960.081 191.303 970.404 164.235 990.957 144.501 L 990.265 143.779 L 989.572 143.058 C 968.547 163.246 958.081 190.879 958.081 225.863 L 959.081 225.863 Z M 990.265 143.779 L 990.957 144.501 C 1011.53 124.747 1038.402 114.837 1071.636 114.837 L 1071.636 113.837 L 1071.636 112.837 C 1037.975 112.837 1010.578 122.889 989.572 143.058 L 990.265 143.779 Z M 1071.636 113.837 L 1071.636 114.837 C 1104.865 114.837 1131.357 124.744 1152.094 144.503 L 1152.783 143.779 L 1153.473 143.055 C 1132.312 122.892 1105.301 112.837 1071.636 112.837 L 1071.636 113.837 Z M 1152.783 143.779 L 1152.094 144.503 C 1172.805 164.238 1183.19 191.305 1183.19 225.863 L 1184.19 225.863 L 1185.19 225.863 C 1185.19 190.877 1174.659 163.243 1153.473 143.055 L 1152.783 143.779 Z M 1184.19 225.863 L 1183.19 225.863 L 1183.19 631.997 L 1184.19 631.997 L 1185.19 631.997 L 1185.19 225.863 L 1184.19 225.863 Z M 1184.19 631.997 L 1184.19 630.997 L 1127.69 630.997 L 1127.69 631.997 L 1127.69 632.997 L 1184.19 632.997 L 1184.19 631.997 Z M 1127.69 631.997 L 1128.69 631.997 L 1128.69 227.207 L 1127.69 227.207 L 1126.69 227.207 L 1126.69 631.997 L 1127.69 631.997 Z M 1127.69 227.207 L 1128.69 227.207 C 1128.69 208.588 1123.433 194.002 1112.796 183.626 L 1112.098 184.341 L 1111.4 185.057 C 1121.553 194.962 1126.69 208.974 1126.69 227.207 L 1127.69 227.207 Z M 1112.098 184.341 L 1112.796 183.626 C 1102.188 173.276 1088.436 168.147 1071.636 168.147 L 1071.636 169.147 L 1071.636 170.147 C 1087.996 170.147 1101.219 175.126 1111.4 185.057 L 1112.098 184.341 Z M 1071.636 169.147 L 1071.636 168.147 C 1054.835 168.147 1041.084 173.276 1030.475 183.626 L 1031.173 184.341 L 1031.872 185.057 C 1042.052 175.126 1055.276 170.147 1071.636 170.147 L 1071.636 169.147 Z M 1031.173 184.341 L 1030.475 183.626 C 1019.839 194.002 1014.582 208.556 1014.582 227.207 L 1015.582 227.207 L 1016.582 227.207 C 1016.582 208.942 1021.719 194.962 1031.872 185.057 L 1031.173 184.341 Z M 1015.582 227.207 L 1014.582 227.207 L 1014.582 631.997 L 1015.582 631.997 L 1016.582 631.997 L 1016.582 227.207 L 1015.582 227.207 Z M 1015.582 631.997 L 1015.582 630.997 L 959.081 630.997 L 959.081 631.997 L 959.081 632.997 L 1015.582 632.997 L 1015.582 631.997 Z M 959.081 631.997 L 960.081 631.997 L 960.081 225.863 L 959.081 225.863 L 958.081 225.863 L 958.081 631.997 L 959.081 631.997 Z M 1412.898 626.573 L 1412.758 625.583 C 1395.943 627.975 1377.593 629.188 1357.769 629.188 L 1357.769 630.188 L 1357.769 631.188 C 1377.673 631.188 1396.119 629.97 1413.039 627.564 L 1412.898 626.573 Z M 1357.769 630.188 L 1357.769 629.188 C 1329.921 629.188 1308.655 621.691 1293.847 606.803 L 1293.138 607.508 L 1292.429 608.213 C 1307.72 623.587 1329.563 631.188 1357.769 631.188 L 1357.769 630.188 Z M 1293.138 607.508 L 1293.845 606.801 C 1279.016 591.955 1271.531 569.701 1271.531 539.947 L 1270.531 539.947 L 1269.531 539.947 C 1269.531 570.013 1277.096 592.863 1292.43 608.215 L 1293.138 607.508 Z M 1270.531 539.947 L 1271.531 539.947 L 1271.531 445.643 L 1270.531 445.643 L 1269.531 445.643 L 1269.531 539.947 L 1270.531 539.947 Z M 1270.531 445.643 L 1270.531 444.643 L 1213.138 444.643 L 1213.138 445.643 L 1213.138 446.643 L 1270.531 446.643 L 1270.531 445.643 Z M 1213.138 445.643 L 1214.138 445.643 L 1214.138 393.949 L 1213.138 393.949 L 1212.138 393.949 L 1212.138 445.643 L 1213.138 445.643 Z M 1213.138 393.949 L 1213.138 394.949 L 1253.823 394.949 L 1253.823 393.949 L 1253.823 392.949 L 1213.138 392.949 L 1213.138 393.949 Z M 1253.823 393.949 L 1253.823 394.949 C 1259.543 394.949 1264.02 393.509 1267.059 390.455 C 1270.097 387.403 1271.531 382.906 1271.531 377.154 L 1270.531 377.154 L 1269.531 377.154 C 1269.531 382.599 1268.175 386.499 1265.641 389.045 C 1263.109 391.589 1259.231 392.949 1253.823 392.949 L 1253.823 393.949 Z M 1270.531 377.154 L 1271.531 377.154 L 1271.531 312.312 L 1270.531 312.312 L 1269.531 312.312 L 1269.531 377.154 L 1270.531 377.154 Z M 1270.531 312.312 L 1270.531 313.312 L 1327.031 313.312 L 1327.031 312.312 L 1327.031 311.312 L 1270.531 311.312 L 1270.531 312.312 Z M 1327.031 312.312 L 1326.031 312.312 L 1326.031 393.949 L 1327.031 393.949 L 1328.031 393.949 L 1328.031 312.312 L 1327.031 312.312 Z M 1327.031 393.949 L 1327.031 394.949 L 1412.898 394.949 L 1412.898 393.949 L 1412.898 392.949 L 1327.031 392.949 L 1327.031 393.949 Z M 1412.898 393.949 L 1411.898 393.949 L 1411.898 445.643 L 1412.898 445.643 L 1413.898 445.643 L 1413.898 393.949 L 1412.898 393.949 Z M 1412.898 445.643 L 1412.898 444.643 L 1327.031 444.643 L 1327.031 445.643 L 1327.031 446.643 L 1412.898 446.643 L 1412.898 445.643 Z M 1327.031 445.643 L 1326.031 445.643 L 1326.031 534.509 L 1327.031 534.509 L 1328.031 534.509 L 1328.031 445.643 L 1327.031 445.643 Z M 1327.031 534.509 L 1326.031 534.509 C 1326.031 548.829 1329.21 559.506 1335.818 566.269 L 1336.533 565.57 L 1337.249 564.871 C 1331.167 558.647 1328.031 548.595 1328.031 534.509 L 1327.031 534.509 Z M 1336.533 565.57 L 1335.818 566.269 C 1342.443 573.049 1353.458 576.327 1368.61 576.327 L 1368.61 575.327 L 1368.61 574.327 C 1353.662 574.327 1343.314 571.079 1337.249 564.871 L 1336.533 565.57 Z M 1368.61 575.327 L 1368.61 576.327 C 1383.709 576.327 1397.945 575.268 1413.037 573.15 L 1412.898 572.16 L 1412.759 571.17 C 1397.752 573.275 1383.61 574.327 1368.61 574.327 L 1368.61 575.327 Z M 1412.898 572.16 L 1411.898 572.16 L 1411.898 626.573 L 1412.898 626.573 L 1413.898 626.573 L 1413.898 572.16 L 1412.898 572.16 Z M 1544.872 632 L 1544.872 631 C 1509.843 631 1480.96 619.761 1458.112 597.283 L 1457.411 597.996 L 1456.71 598.708 C 1479.968 621.59 1509.371 633 1544.872 633 L 1544.872 632 Z M 1457.411 597.996 L 1458.112 597.283 C 1435.269 574.809 1423.816 546.06 1423.816 510.921 L 1422.816 510.921 L 1421.816 510.921 C 1421.816 546.542 1433.447 575.822 1456.71 598.708 L 1457.411 597.996 Z M 1422.816 510.921 L 1423.816 510.921 C 1423.816 475.782 1435.269 446.968 1458.115 424.333 L 1457.411 423.623 L 1456.707 422.912 C 1433.447 445.958 1421.816 475.3 1421.816 510.921 L 1422.816 510.921 Z M 1457.411 423.623 L 1458.115 424.334 C 1480.963 401.727 1509.846 390.394 1544.872 390.394 L 1544.872 389.394 L 1544.872 388.394 C 1509.369 388.394 1479.965 399.902 1456.708 422.912 L 1457.411 423.623 Z M 1544.872 389.394 L 1544.872 390.394 C 1579.905 390.394 1609.168 401.636 1631.853 424.109 L 1632.556 423.399 L 1633.26 422.688 C 1610.158 399.802 1580.369 388.394 1544.872 388.394 L 1544.872 389.394 Z M 1632.556 423.399 L 1631.853 424.109 C 1654.535 446.581 1665.896 475.489 1665.896 510.921 L 1666.896 510.921 L 1667.896 510.921 C 1667.896 475.018 1656.364 445.577 1633.26 422.688 L 1632.556 423.399 Z M 1666.896 510.921 L 1665.896 510.921 C 1665.896 546.349 1654.538 574.811 1631.853 597.285 L 1632.556 597.996 L 1633.26 598.706 C 1656.362 575.819 1667.896 546.828 1667.896 510.921 L 1666.896 510.921 Z M 1632.556 597.996 L 1631.853 597.285 C 1609.167 619.76 1580.191 631 1544.872 631 L 1544.872 632 L 1544.872 633 C 1580.657 633 1610.159 621.592 1633.26 598.706 L 1632.556 597.996 Z M 1498.32 558.297 L 1497.599 558.99 C 1509.858 571.745 1525.656 578.107 1544.872 578.107 L 1544.872 577.107 L 1544.872 576.107 C 1526.145 576.107 1510.886 569.929 1499.041 557.604 L 1498.32 558.297 Z M 1544.872 577.107 L 1544.872 578.107 C 1564.088 578.107 1579.886 571.745 1592.145 558.99 L 1591.424 558.297 L 1590.703 557.604 C 1578.858 569.929 1563.599 576.107 1544.872 576.107 L 1544.872 577.107 Z M 1591.424 558.297 L 1592.145 558.99 C 1604.395 546.245 1610.503 530.186 1610.503 510.921 L 1609.503 510.921 L 1608.503 510.921 C 1608.503 529.723 1602.559 545.269 1590.703 557.604 L 1591.424 558.297 Z M 1609.503 510.921 L 1610.503 510.921 C 1610.503 491.664 1604.399 475.215 1592.141 462.624 L 1591.424 463.321 L 1590.708 464.019 C 1602.555 476.187 1608.503 492.112 1608.503 510.921 L 1609.503 510.921 Z M 1591.424 463.321 L 1592.141 462.624 C 1579.881 450.031 1564.085 443.736 1544.872 443.736 L 1544.872 444.736 L 1544.872 445.736 C 1563.603 445.736 1578.863 451.852 1590.708 464.019 L 1591.424 463.321 Z M 1544.872 444.736 L 1544.872 443.736 C 1525.659 443.736 1509.863 450.031 1497.603 462.624 L 1498.32 463.321 L 1499.036 464.019 C 1510.881 451.852 1526.141 445.736 1544.872 445.736 L 1544.872 444.736 Z M 1498.32 463.321 L 1497.602 462.625 C 1485.347 475.246 1479.241 491.373 1479.241 510.921 L 1480.241 510.921 L 1481.241 510.921 C 1481.241 491.827 1487.188 476.221 1499.037 464.018 L 1498.32 463.321 Z M 1480.241 510.921 L 1479.241 510.921 C 1479.241 530.476 1485.351 546.247 1497.599 558.99 L 1498.32 558.297 L 1499.041 557.604 C 1487.184 545.268 1481.241 530.009 1481.241 510.921 L 1480.241 510.921 Z M 1840 393.954 L 1839 393.954 L 1839 449.743 L 1840 449.743 L 1841 449.743 L 1841 393.954 L 1840 393.954 Z M 1840 449.743 L 1840 448.743 L 1813.79 448.743 L 1813.79 449.743 L 1813.79 450.743 L 1840 450.743 L 1840 449.743 Z M 1813.79 449.743 L 1813.79 448.743 C 1794.582 448.743 1778.941 454.939 1766.963 467.412 L 1767.685 468.105 L 1768.406 468.797 C 1779.959 456.766 1795.055 450.743 1813.79 450.743 L 1813.79 449.743 Z M 1767.685 468.105 L 1766.963 467.412 C 1754.988 479.883 1749.052 496.238 1749.052 516.408 L 1750.052 516.408 L 1751.052 516.408 C 1751.052 496.656 1756.85 480.83 1768.406 468.797 L 1767.685 468.105 Z M 1750.052 516.408 L 1749.052 516.408 L 1749.052 627.506 L 1750.052 627.506 L 1751.052 627.506 L 1751.052 516.408 L 1750.052 516.408 Z M 1750.052 627.506 L 1750.052 626.506 L 1693.552 626.506 L 1693.552 627.506 L 1693.552 628.506 L 1750.052 628.506 L 1750.052 627.506 Z M 1693.552 627.506 L 1694.552 627.506 L 1694.552 516.408 L 1693.552 516.408 L 1692.552 516.408 L 1692.552 627.506 L 1693.552 627.506 Z M 1693.552 516.408 L 1694.552 516.408 C 1694.552 474.848 1705.066 444.324 1725.869 424.622 L 1725.182 423.896 L 1724.494 423.17 C 1703.145 443.389 1692.552 474.541 1692.552 516.408 L 1693.552 516.408 Z M 1725.182 423.896 L 1725.869 424.622 C 1746.708 404.885 1775.989 394.954 1813.758 394.954 L 1813.758 393.954 L 1813.758 392.954 C 1775.641 392.954 1745.807 402.983 1724.494 423.17 L 1725.182 423.896 Z M 397.674 118.382 L 397.674 119.382 L 423.916 119.382 L 423.916 118.382 L 423.916 117.382 L 397.674 117.382 L 397.674 118.382 Z M 1813.758 393.954 L 1813.758 394.954 L 1840 394.954 L 1840 393.954 L 1840 392.954 L 1813.758 392.954 L 1813.758 393.954 Z" fill="#07D862" fill-rule="nonzero"></path>
</svg>